<svg width="38" height="38" viewBox="0 0 38 38" fill="none" xmlns="http://www.w3.org/2000/svg">
    <path d="M1.35 30.0761V30.0756V30.0751V30.0746V30.0744V30.0742V30.074V30.0735V30.0731V30.0728V30.0724V30.072V30.0717V30.0713V30.071V30.0706V30.0703V30.07V30.0697V30.0695V30.0692V30.0689V30.0687V30.0685V30.0683V30.067L1.30852 5.17302L1.30852 5.17277C1.30852 4.96114 1.3922 4.76932 1.5294 4.63246L1.52934 4.63252L1.63541 4.73859L1.52949 4.63237L1.53414 4.62773L1.53429 4.62757L1.64035 4.73364C1.71389 4.65989 1.86464 4.68579 2.00763 4.71035C2.0763 4.72215 2.14317 4.73364 2.19885 4.73364L1.35 30.0761ZM1.35 30.0761V30.0762V30.0763V30.0766V30.0771V30.0776V30.0781V30.0787V30.0792V30.0797V30.0803V30.0809V30.0814V30.082V30.0826V30.0832V30.0839V30.0845V30.0851V30.0858V30.0864V30.0871V30.0878V30.0885V30.0892V30.0899V30.0906V30.0913V30.0921V30.0928V30.0936V30.0944V30.0952V30.0959V30.0967V30.0976V30.0984V30.0992V30.1V30.1009V30.1017V30.1026V30.1035V30.1044V30.1053V30.1062V30.1071V30.108V30.1089V30.1099V30.1108V30.1118V30.1127V30.1137V30.1147V30.1157V30.1167V30.1177V30.1187V30.1197V30.1207V30.1218V30.1228V30.1239V30.1249V30.126V30.1271V30.1282V30.1292V30.1303V30.1315V30.1326V30.1337V30.1348V30.136V30.1371V30.1383V30.1394V30.1406V30.1417V30.1429V30.1441V30.1453V30.1465V30.1477V30.1489V30.1501V30.1514V30.1526V30.1538V30.1551V30.1563V30.1576V30.1589V30.1601V30.1614V30.1627V30.164V30.1653V30.1666V30.1679V30.1692V30.1705V30.1718V30.1732V30.1745V30.1759V30.1772V30.1786V30.1799V30.1813V30.1826V30.184V30.1854V30.1868V30.1882V30.1896V30.1909V30.1924V30.1938V30.1952V30.1966V30.198V30.1994V30.2009V30.2023V30.2037V30.2052V30.2066V30.2081V30.2095V30.211V30.2125V30.2139V30.2154V30.2169V30.2184V30.2198V30.2213V30.2228V30.2243V30.2258V30.2273V30.2288V30.2303V30.2318V30.2333V30.2349V30.2364V30.2379V30.2394V30.241V30.2425V30.244V30.2456V30.2471V30.2486V30.2502V30.2517V30.2533V30.2548V30.2564V30.258V30.2595V30.2611V30.2626V30.2642V30.2658V30.2674V30.2689V30.2705V30.2721V30.2737V30.2752V30.2768V30.2784V30.28V30.2816V30.2832V30.2847V30.2863V30.2879V30.2895V30.2911V30.2927V30.2943V30.2959V30.2975V30.2991V30.3007V30.3023V30.3039V30.3055V30.3071V30.3087V30.3103V30.3119V30.3135V30.3151V30.3167V30.3183V30.3199V30.3215V30.3231V30.3247V30.3264V30.328V30.3296V30.3312V30.3328V30.3344V30.336V30.3376V30.3392V30.3408V30.3424V30.344V30.3456V30.3472V30.3488V30.3504V30.352V30.3536V30.3551V30.3567V30.3583V30.3599V30.3615V30.3631V30.3647V30.3663V30.3678V30.3694V30.371V30.3726V30.3742V30.3757V30.3773V30.3789V30.3804V30.382V30.3836V30.3851V30.3867V30.3882V30.3898V30.3913V30.3929V30.3944V30.396V30.3975V30.3991V30.4006V30.4021V30.4037V30.4052V30.4067V30.4082V30.4097V30.4113V30.4128V30.4143V30.4158V30.4173V30.4188V30.4203V30.4218V30.4232V30.4247V30.4262V30.4277V30.4292V30.4306V30.4321V30.4335V30.435V30.4365V30.4379V30.4393V30.4408V30.4422V30.4436V30.4451V30.4465V30.4479V30.4493V30.4507V30.4521V30.4535V30.4549V30.4563V30.4577V30.4591V30.4604V30.4618V30.4632V30.4645V30.4659V30.4672V30.4686V30.4699V30.4712V30.4726V30.4739V30.4752V30.4765V30.4778V30.4791V30.4804V30.4817V30.4829V30.4842V30.4855V30.4867V30.488V30.4892V30.4905V30.4917V30.4929V30.4942V30.4954V30.4966V30.4978V30.499V30.5002V30.5013V30.5025V30.5037V30.5048V30.506V30.5071V30.5083V30.5094V30.5105V30.5116V30.5127V30.5138V30.5149V30.516V30.5171V30.5182V30.5192V30.5203V30.5213V30.5224V30.5234V30.5244V30.5254V30.5264V30.5274V30.5284V30.5294V30.5304V30.5313V30.5323V30.5332V30.5342V30.5351V30.536V30.5369V30.5378V30.5387V30.5396V30.5405V30.5413V30.5422V30.543V30.5439V30.5447V30.5455V30.5463V30.5471V30.5479V30.5487V30.5495V30.5502V30.551V30.5517V30.5525V30.5532V30.5539V30.5546V30.5553V30.556V30.5566V30.5573V30.558V30.5586V30.5592V30.5599V30.5605V30.5611V30.5616V30.5622V30.5628V30.5633V30.5639V30.5644V30.5649V30.5655V30.566V30.5664V30.5669V30.5674V30.5678V30.5683V30.5687V30.5691V30.5695V30.5699V30.5703V30.5707V30.5711V30.5714V30.5717V30.5721V30.5724V30.5727V30.573V30.5732V30.5735V30.5738V30.574V30.5742V30.5744V30.5746V30.5748V30.575V30.5752V30.5753V30.5755V30.5756V30.5757V30.5758V30.5759V30.576V30.576V30.5761V30.5761V30.5761V30.6112L1.36556 30.6427L1.50591 30.9263L1.50573 30.9264L1.50958 30.9332C1.70342 31.2783 1.93818 31.4761 2.12951 31.5876C2.2247 31.6431 2.30832 31.6768 2.3697 31.6968C2.40039 31.7068 2.42558 31.7135 2.44394 31.7177C2.45312 31.7199 2.46061 31.7214 2.46624 31.7225L2.47328 31.7238L2.47572 31.7242L2.47666 31.7243L2.47707 31.7244L2.47725 31.7244C2.47734 31.7244 2.47742 31.7244 2.5 31.5761L2.47742 31.7244L2.48901 31.7262L2.50074 31.7261L17.9992 31.65H18.0007L34.4992 31.7359L34.5124 31.736L34.5254 31.7338L34.5 31.5859L34.5255 31.7338L34.5256 31.7337L34.5257 31.7337L34.5263 31.7336L34.5278 31.7334L34.533 31.7324L34.5515 31.7288C34.5671 31.7257 34.5893 31.721 34.6164 31.7146C34.6707 31.7018 34.7457 31.6821 34.8292 31.6538C34.9916 31.5991 35.206 31.5061 35.3561 31.3561C35.5092 31.203 35.5806 31.006 35.6149 30.8581C35.6324 30.7827 35.6411 30.7162 35.6455 30.6682C35.6477 30.6441 35.6488 30.6245 35.6494 30.6104L35.6499 30.5936L35.65 30.5886L35.65 30.587V30.5864L35.65 30.5861V30.586L35.5 30.5859H35.65V29.5L35.65 29.0761V17.2659L35.65 5C35.65 4.90201 35.6355 4.77986 35.5766 4.66836C35.5147 4.5512 35.4081 4.45509 35.2462 4.41183C35.1084 4.37502 34.9168 4.36057 34.7698 4.3544C34.6942 4.35124 34.6265 4.35014 34.5777 4.34983C34.5532 4.34968 34.5334 4.34972 34.5196 4.34981L34.5036 4.34994L34.4993 4.35L34.4989 4.35001L34.4981 4.35001L34.4978 4.35002L34.4977 4.35002L34.4976 4.35002L2.19885 4.58364C2.19869 4.58364 2.19853 4.58364 2.19837 4.58364L1.35 30.0761ZM18 3.5C18 3.65 18 3.65 18.0001 3.65H18.0004H18.001H18.0018H18.0028H18.004H18.0054H18.0071H18.009H18.0111H18.0134H18.0159H18.0186H18.0216H18.0248H18.0282H18.0318H18.0356H18.0396H18.0438H18.0483H18.053H18.0578H18.0629H18.0682H18.0737H18.0794H18.0853H18.0914H18.0978H18.1043H18.111H18.118H18.1251H18.1325H18.14H18.1478H18.1557H18.1639H18.1722H18.1808H18.1895H18.1985H18.2076H18.217H18.2265H18.2363H18.2462H18.2563H18.2667H18.2772H18.2879H18.2988H18.3099H18.3212H18.3326H18.3443H18.3561H18.3682H18.3804H18.3928H18.4054H18.4182H18.4312H18.4444H18.4577H18.4713H18.485H18.4989H18.513H18.5272H18.5417H18.5563H18.5711H18.5861H18.6012H18.6166H18.6321H18.6478H18.6637H18.6797H18.6959H18.7123H18.7289H18.7456H18.7626H18.7797H18.7969H18.8144H18.832H18.8497H18.8677H18.8858H18.9041H18.9225H18.9411H18.9599H18.9788H18.998H19.0172H19.0367H19.0563H19.076H19.096H19.116H19.1363H19.1567H19.1773H19.198H19.2189H19.2399H19.2611H19.2825H19.304H19.3257H19.3475H19.3695H19.3916H19.4139H19.4364H19.459H19.4817H19.5046H19.5276H19.5508H19.5742H19.5977H19.6213H19.6451H19.669H19.6931H19.7174H19.7417H19.7662H19.7909H19.8157H19.8407H19.8657H19.9163H19.9675H19.9933H20.0192H20.0715H20.1243H20.1777H20.2316H20.3409H20.3686H20.3964H20.4524H20.6815H20.7107H20.74H20.799H20.9185H21.0398H21.1012H21.1321H21.1631H21.2881H21.415H21.4791H21.5113H21.5436H21.6085H21.6739H21.7397H21.8059H21.8725H21.9395H21.9731H22.0069H22.0747H22.1088H22.1429H22.1772H22.2115H22.2459H22.2805H22.3151H22.3498H22.3846H22.4195H22.4545H22.4896H22.5248H22.56H22.5954H22.6308H22.6664H22.702H22.7377H22.7735H22.8094H22.8453H22.8814H22.9175H22.9537H22.99H23.0264H23.0629H23.0994H23.136H23.1727H23.2095H23.2464H23.2833H23.3203H23.3574H23.3946H23.4318H23.4692H23.5065H23.544H23.5816H23.6192H23.6569H23.6946H23.7324H23.7703H23.8083H23.8463H23.8845H23.9226H23.9609H23.9992H24.0376H24.076H24.1145H24.1531H24.1917H24.2304H24.2692H24.308H24.3469H24.3858H24.4248H24.4639H24.503H24.5422H24.5814H24.6207H24.6601H24.6995H24.7389H24.7785H24.818H24.8577H24.8973H24.9371H24.9769H25.0167H25.0566H25.0965H25.1365H25.1765H25.2166H25.2568H25.2969H25.3372H25.3774H25.4177H25.4581H25.4985H25.539H25.5795H25.62H25.6606H25.7012H25.7419H25.7826H25.8233H25.8641H25.9049H25.9457H25.9866H26.0276H26.0685H26.1095H26.1506H26.1916H26.2327H26.2739H26.315H26.3562H26.3975H26.4387H26.48H26.5213H26.5627H26.6041H26.6455H26.6869H26.7284H26.7698H26.8113H26.8529H26.8944H26.936H26.9776H27.0193H27.0609H27.1026H27.1443H27.186H27.2277H27.2695H27.3112H27.353H27.3948H27.4366H27.4785H27.5203H27.5622H27.604H27.6459H27.6878H27.7298H27.7717H27.8136H27.8556H27.8975H27.9395H27.9815H28.0235H28.0655H28.1075H28.1495H28.1915H28.2335H28.2755H28.3175H28.3596H28.4016H28.4436H28.4857H28.5277H28.5697H28.6118H28.6538H28.6958H28.7379H28.7799H28.8219H28.864H28.906H28.948H28.99H29.032H29.074H29.116H29.158H29.1999H29.2419H29.2839H29.3258H29.3677H29.4096H29.4516H29.4935H29.5353H29.5772H29.6191H29.6609H29.7027H29.7445H29.7863H29.8281H29.8698H29.9116H29.9533H29.995H30.0367H30.0783H30.12H30.1616H30.2032H30.2447H30.2863H30.3278H30.3693H30.4108H30.4522H30.4936H30.535H30.5764H30.6177H30.659H30.7003H30.7415H30.7827H30.8239H30.865H30.9062H30.9472H30.9883H31.0293H31.0703H31.1112H31.1521H31.193H31.2338H31.2746H31.3154H31.3561H31.3968H31.4374H31.478H31.5185H31.559H31.5995H31.6399H31.6803H31.7206H31.7609H31.8012H31.8414H31.8815H31.9216H31.9617H32.0017H32.0416H32.0815H32.1214H32.1612H32.2009H32.2406H32.2803H32.3199H32.3594H32.3989H32.4383H32.4777H32.517H32.5563H32.5955H32.6346H32.6737H32.7127H32.7517H32.7906H32.8295H32.8682H32.907H32.9456H32.9842H33.0227H33.0612H33.0996H33.1379H33.1762H33.2144H33.2525H33.2906H33.3286H33.3665H33.4044H33.4421H33.4799H33.5175H33.5551H33.5926H33.63H33.6673H33.7046H33.7418H33.7789H33.816H33.8529H33.8898H33.9266H33.9633H34C34.7396 3.65 35.1829 3.73661 35.4546 3.83502C35.7148 3.92927 35.8228 4.03586 35.8906 4.1028L35.8947 4.1068C36.0479 4.25788 36.35 4.56868 36.35 5V17.2659V30.4379L36.308 30.4799L36.0814 30.7064L35.3939 31.3939C35.3477 31.4402 35.2923 31.5091 35.2344 31.5814C35.2153 31.6051 35.1959 31.6293 35.1765 31.6531C35.0933 31.755 34.997 31.8668 34.8837 31.9711C34.6575 32.1791 34.3714 32.35 34 32.35H18H2.5C2.45598 32.35 2.39582 32.3288 2.31686 32.2708C2.23938 32.2138 2.15806 32.1319 2.07426 32.0356C2.00102 31.9514 1.93012 31.8611 1.86061 31.7727C1.85087 31.7603 1.84115 31.7479 1.83146 31.7356C1.7549 31.6384 1.67742 31.5414 1.60607 31.4701L1.60301 31.467C1.47403 31.338 1.23316 31.0972 1.02389 30.8192C0.807246 30.5314 0.65 30.2362 0.65 30V17.5V11V5C0.65 5 0.65 5 0.65 5C0.650006 4.7193 0.686261 4.38251 0.865538 4.11814C1.03709 3.86516 1.35985 3.65 2 3.65L10.5086 3.65L15.6907 3.65L17.3681 3.65L17.8352 3.65H17.958H17.9894H17.9973H17.9993H17.9998C17.9999 3.65 18 3.65 18 3.5ZM10.983 20.8928H16.5603V23.0281H7.7981V12.5653H16.3982V14.5649H10.983H10.833V14.7149V16.4272V16.5772H10.983H15.9903V18.4726H10.983H10.833V18.6226V20.7428V20.8928H10.983ZM25.3605 18.3594V12.5653H28.2019V23.0281H25.29L21.3228 17.1817L21.0487 16.7777V17.2659V23.025H18.2222V12.5653H21.0963L25.0864 18.4436L25.3605 18.8475V18.3594Z" fill="#E8E9EF" stroke="#E8E9EF" stroke-width="0.3"/>
</svg>
